<svg xmlns="http://www.w3.org/2000/svg" viewBox="0 0 1280 720" role="img" aria-labelledby="title desc">
  <title id="title">Lightweight Proxmox Security Control Plane</title>
  <desc id="desc">Sanitized architecture diagram showing OPNsense, Proxmox LXCs, Homepage cockpit, logs, discovery, canary, and report runners.</desc>
  <defs>
    <linearGradient id="bg" x1="0" x2="1" y1="0" y2="1">
      <stop offset="0" stop-color="#101820"/>
      <stop offset="1" stop-color="#15222b"/>
    </linearGradient>
    <linearGradient id="teal" x1="0" x2="1">
      <stop offset="0" stop-color="#27e0c3"/>
      <stop offset="1" stop-color="#3aa7ff"/>
    </linearGradient>
    <filter id="shadow" x="-20%" y="-20%" width="140%" height="140%">
      <feDropShadow dx="0" dy="8" stdDeviation="10" flood-color="#000" flood-opacity=".35"/>
    </filter>
    <style>
      .bg { fill: url(#bg); }
      .grid { stroke: #24404b; stroke-width: 1; opacity: .35; }
      .card { fill: #17232c; stroke: #2d4653; stroke-width: 2; rx: 18; filter: url(#shadow); }
      .core { fill: #132d35; stroke: #27e0c3; }
      .accent { fill: url(#teal); }
      .title { fill: #eef7f7; font: 700 34px system-ui, -apple-system, Segoe UI, sans-serif; }
      .subtitle { fill: #9fb6c1; font: 500 17px system-ui, -apple-system, Segoe UI, sans-serif; }
      .label { fill: #effafa; font: 700 20px system-ui, -apple-system, Segoe UI, sans-serif; }
      .small { fill: #bdd1d8; font: 500 14px system-ui, -apple-system, Segoe UI, sans-serif; }
      .tiny { fill: #8ba8b4; font: 500 12px system-ui, -apple-system, Segoe UI, sans-serif; }
      .line { stroke: #39dcca; stroke-width: 3; fill: none; opacity: .7; marker-end: url(#arrow); }
      .muted-line { stroke: #55707d; stroke-width: 2; fill: none; opacity: .8; marker-end: url(#arrow-muted); }
      .pill { fill: #0f1a21; stroke: #2f4d59; stroke-width: 1.5; rx: 13; }
      .pilltext { fill: #cce1e7; font: 600 13px system-ui, -apple-system, Segoe UI, sans-serif; }
    </style>
    <marker id="arrow" markerWidth="10" markerHeight="10" refX="7" refY="3" orient="auto">
      <path d="M0,0 L0,6 L8,3 z" fill="#39dcca"/>
    </marker>
    <marker id="arrow-muted" markerWidth="10" markerHeight="10" refX="7" refY="3" orient="auto">
      <path d="M0,0 L0,6 L8,3 z" fill="#55707d"/>
    </marker>
  </defs>

  <rect class="bg" width="1280" height="720"/>
  <g>
    <path class="grid" d="M0 80H1280M0 160H1280M0 240H1280M0 320H1280M0 400H1280M0 480H1280M0 560H1280M0 640H1280"/>
    <path class="grid" d="M80 0V720M160 0V720M240 0V720M320 0V720M400 0V720M480 0V720M560 0V720M640 0V720M720 0V720M800 0V720M880 0V720M960 0V720M1040 0V720M1120 0V720M1200 0V720"/>
  </g>

  <text x="60" y="70" class="title">Lightweight Home Security Control Plane</text>
  <text x="60" y="100" class="subtitle">OPNsense remains the enforcement point; Proxmox provides visibility, canary signal, backups, and report-based checks.</text>

  <rect x="60" y="160" width="220" height="130" class="card"/>
  <text x="88" y="205" class="label">Internet / WAN</text>
  <text x="88" y="233" class="small">External traffic</text>
  <text x="88" y="258" class="tiny">No services exposed by this project</text>

  <rect x="370" y="140" width="260" height="170" class="card core"/>
  <text x="400" y="185" class="label">OPNsense</text>
  <text x="400" y="215" class="small">Firewall / gateway / DNS</text>
  <rect x="400" y="240" width="172" height="28" class="pill"/>
  <text x="416" y="259" class="pilltext">CrowdSec enabled</text>
  <text x="400" y="292" class="tiny">Suricata/IPS left off for latency</text>

  <rect x="730" y="120" width="430" height="500" class="card"/>
  <text x="760" y="165" class="label">Proxmox Security Node</text>
  <text x="760" y="193" class="small">Laptop host, lid sleep disabled, LXC-first design</text>

  <rect x="770" y="225" width="155" height="105" class="card core"/>
  <text x="792" y="260" class="label">Homepage</text>
  <text x="792" y="285" class="small">Cockpit</text>
  <text x="792" y="307" class="tiny">Mission status</text>

  <rect x="955" y="225" width="155" height="105" class="card core"/>
  <text x="977" y="260" class="label">Uptime</text>
  <text x="977" y="285" class="small">Kuma</text>
  <text x="977" y="307" class="tiny">SQLite monitor DB</text>

  <rect x="770" y="360" width="155" height="105" class="card core"/>
  <text x="792" y="395" class="label">VictoriaLogs</text>
  <text x="792" y="420" class="small">Central logs</text>
  <text x="792" y="442" class="tiny">Retention + disk cap</text>

  <rect x="955" y="360" width="155" height="105" class="card core"/>
  <text x="977" y="395" class="label">NetAlertX</text>
  <text x="977" y="420" class="small">Device awareness</text>
  <text x="977" y="442" class="tiny">LAN-only scope</text>

  <rect x="770" y="495" width="155" height="105" class="card core"/>
  <text x="792" y="530" class="label">OpenCanary</text>
  <text x="792" y="555" class="small">Fake NAS</text>
  <text x="792" y="577" class="tiny">High-signal tripwire</text>

  <rect x="955" y="495" width="155" height="105" class="card core"/>
  <text x="977" y="530" class="label">Runners</text>
  <text x="977" y="555" class="small">Trivy / Syft</text>
  <text x="977" y="577" class="tiny">Reports only</text>

  <rect x="370" y="420" width="260" height="120" class="card"/>
  <text x="400" y="463" class="label">Trusted LAN</text>
  <text x="400" y="493" class="small">Clients, AP, gaming devices</text>
  <text x="400" y="518" class="tiny">Normal traffic does not traverse Proxmox</text>

  <path class="line" d="M280 225H365"/>
  <path class="line" d="M630 225C675 225 690 250 730 250"/>
  <path class="muted-line" d="M630 480C675 480 690 412 770 412"/>
  <path class="muted-line" d="M630 480C675 480 690 548 770 548"/>
  <path class="muted-line" d="M500 310V415"/>
  <path class="muted-line" d="M925 548H950"/>
  <path class="muted-line" d="M925 412H950"/>
  <path class="muted-line" d="M925 278H950"/>

  <text x="650" y="215" class="tiny">syslog + config backup</text>
  <text x="520" y="365" class="tiny">routing stays here</text>

  <rect x="60" y="600" width="570" height="58" class="pill"/>
  <text x="85" y="624" class="pilltext">Design rule: visibility without packet-path interference</text>
  <text x="85" y="646" class="tiny">No inline proxy, no broad auto-remediation, no IPS blocking, no heavy SIEM.</text>
</svg>
